<svg width="955" height="167" viewBox="0 0 955 167" fill="none" xmlns="http://www.w3.org/2000/svg">
<path d="M0.5 15C0.5 6.71573 7.21573 0 15.5 0H939.924C951.028 0 958.282 11.6444 953.388 21.6113L886.119 158.611C883.598 163.746 878.375 167 872.655 167H15.5C7.21575 167 0.5 160.284 0.5 152V15Z" fill="white"/>
<path d="M15.5 1.5H939.924C949.917 1.5 956.447 11.98 952.042 20.9501L884.773 157.95C882.503 162.572 877.803 165.5 872.655 165.5H15.5C8.04417 165.5 2 159.456 2 152V15C2 7.54416 8.04416 1.5 15.5 1.5Z" stroke="#696969" stroke-opacity="0.35" stroke-width="3"/>
</svg>
